<svg width="173" height="18" viewBox="0 0 173 18" fill="none" xmlns="http://www.w3.org/2000/svg">
<path d="M172.186 12.4449C172.299 12.9201 172.067 13.5646 171.792 14.0183C171.604 14.3243 171.112 14.5512 170.718 14.634C168.787 15.0517 166.856 15.5197 164.906 15.7718C163.271 15.9878 162.266 15.0085 162.259 13.3666C162.244 9.42399 162.288 5.48498 162.295 1.54238C162.295 0.451407 162.906 -0.0562723 163.908 0.00493712C166.519 0.174163 169.13 0.382997 171.734 0.681843C172.1 0.72505 172.4 1.35875 172.74 1.7152C172.346 2.02125 171.969 2.55413 171.554 2.59014C170.114 2.70896 168.66 2.64775 167.21 2.67295C166.472 2.68735 165.734 2.73416 164.837 2.77736C164.906 3.86833 164.964 4.80448 165.033 5.67221C166.971 6.53275 169.224 5.85224 171.217 7.64172C170.291 8.04138 169.695 8.40503 169.054 8.53465C168.443 8.66787 167.771 8.49865 167.13 8.57066C166.364 8.64627 165.228 8.1782 165.214 9.59682C165.192 11.1487 165.803 11.75 167.271 11.7427C168.501 11.7355 169.742 11.6743 170.971 11.7644C171.416 11.7968 172.111 12.1316 172.186 12.4449Z" fill="white"/>
<path d="M159.391 11.5447C159.13 13.381 158.241 14.2847 156.147 14.7744C154.349 15.1921 152.631 14.9148 151.087 13.9211C150.743 13.6978 150.447 12.9921 150.548 12.6213C150.646 12.272 151.279 11.8507 151.691 11.8399C152.751 11.8039 153.825 12.0848 154.884 12.0272C155.503 11.9984 156.1 11.5591 156.704 11.2999C156.288 10.8246 155.959 10.1045 155.449 9.93885C153.94 9.43477 152.277 9.34476 150.845 8.72186C149.883 8.3042 148.859 7.37885 148.487 6.43551C147.951 5.0997 148.62 3.64868 149.926 3.03298C151.575 2.25886 153.373 1.69717 155.17 1.37673C155.738 1.27231 156.924 2.12564 157.08 2.72693C157.369 3.86471 156.295 3.88631 155.387 3.99793C153.836 4.18516 152.306 4.54162 151.091 6.09346C153.308 6.73795 155.192 7.12682 156.946 7.83252C158.808 8.58144 159.608 10.0145 159.391 11.5447Z" fill="white"/>
<path d="M142.613 14.4108C140.031 16.3119 135.676 14.8248 134.595 11.5519C134.089 10.0073 133.94 8.34382 133.633 6.73797C133.723 6.71637 133.814 6.70197 133.908 6.68757C133.908 5.89184 133.752 5.04571 133.959 4.2968C134.107 3.71711 134.689 3.24904 135.083 2.73056C135.568 3.21303 136.346 3.6307 136.494 4.20678C136.866 5.69381 136.964 7.24565 137.181 8.77589C137.239 9.19355 137.224 9.66883 137.427 10.0145C138.031 11.019 138.725 12.3764 140.045 11.9372C140.993 11.6239 141.926 10.5546 142.349 9.59682C142.848 8.46624 142.79 7.09443 142.96 5.83064C143.058 5.08892 143.018 4.3076 143.261 3.6235C143.409 3.21663 143.962 2.85298 144.411 2.71615C144.606 2.65494 145.112 3.11582 145.282 3.44347C146.537 5.87024 144.823 12.7869 142.613 14.4108Z" fill="white"/>
<path d="M131.615 8.72188C131.369 4.9413 129.04 1.58558 125.235 1.7188C121.648 1.84482 118.067 5.73702 118.186 9.39159C118.291 12.6069 120.693 15.4909 124.87 15.2605C128.186 15.5845 131.861 12.4521 131.615 8.72188ZM125.318 12.7113C123.109 12.8229 121.34 11.3611 121.239 9.33757C121.141 7.26725 123.21 4.66765 125 4.62805C127.275 4.57044 128.664 6.81719 129.098 9.21156C129.141 10.8174 127.199 12.6213 125.318 12.7113Z" fill="white"/>
<path d="M116.063 14.0543C116.006 14.6268 115.304 15.138 114.892 15.6745C114.422 15.1632 113.655 14.7096 113.55 14.1299C113.318 12.8877 113.521 11.5663 113.355 10.2989C113.297 9.88123 112.682 9.25114 112.266 9.20793C110.989 9.07471 109.691 9.20793 108.4 9.17912C107.34 9.15752 107.011 9.6544 107.026 10.659C107.047 11.8327 106.968 13.0137 106.801 14.1731C106.74 14.6196 106.36 15.2785 106.002 15.3757C105.644 15.4729 104.964 15.0876 104.718 14.724C104.389 14.2271 104.172 13.543 104.197 12.9489C104.331 9.85243 104.526 6.76315 104.801 3.67388C104.837 3.27422 105.413 2.92496 105.734 2.55411C106.1 2.92496 106.704 3.25261 106.78 3.67388C107.286 6.50391 107.25 6.51112 110.114 6.4139C110.599 6.3995 111.076 6.26628 111.554 6.26628C112.986 6.25908 113.626 5.61098 113.413 4.16355C113.355 3.7999 113.308 3.36783 113.456 3.05098C113.651 2.63332 113.991 2.05003 114.346 1.98882C114.733 1.92041 115.47 2.26966 115.593 2.60451C115.908 3.42904 116.042 4.33638 116.1 5.22572C116.176 6.50391 116.121 7.78931 116.121 9.07471C116.121 10.7418 116.226 12.4088 116.063 14.0543Z" fill="white"/>
<path d="M85.2352 3.56951C84.5879 7.05845 84.794 7.26008 88.2045 6.81361C89.3763 6.66598 90.5625 6.52556 91.7343 6.59037C92.219 6.61198 92.6747 7.18447 93.1448 7.51212C92.7506 7.86857 92.3998 8.46266 91.9586 8.53827C90.1683 8.83712 88.3564 9.04235 86.5481 9.15397C85.4233 9.22238 84.9133 9.55363 85.3039 10.7202C85.3654 10.9218 85.3799 11.1451 85.3944 11.3575C85.6186 14.8572 85.4848 14.4468 89.1087 14.2019C89.9586 14.1407 90.8302 13.8095 91.6512 13.9211C92.219 13.9967 92.7181 14.6052 93.2461 14.9761C92.8266 15.4945 92.4613 16.3875 91.9694 16.4559C89.6584 16.7979 87.3148 17.0428 84.9857 17.0572C83.6656 17.0644 82.9061 16.085 82.9134 14.6736C82.9206 11.6203 82.9423 8.56708 82.8989 5.51021C82.8844 4.67848 82.7108 3.84675 82.5264 3.02943C82.3094 2.05007 82.624 1.39477 83.6222 1.30476C86.6674 1.03111 89.7162 0.807882 92.7687 0.620653C93.5897 0.570246 94.7398 0.383016 94.7072 1.62161C94.6927 1.98526 93.5354 2.52174 92.8483 2.62616C90.3238 3.02582 87.7777 3.27066 85.2352 3.56951Z" fill="white"/>
<path d="M77.2389 2.60456C76.5228 2.92501 75.7307 3.14825 74.9495 3.24186C73.9947 3.35348 73.0182 3.30307 72.049 3.31027C69.0797 3.33188 68.7289 3.80714 69.7669 6.65878C69.879 6.97203 70.5408 7.26008 70.9531 7.26728C72.454 7.30328 73.973 7.12686 75.4667 7.21687C76.02 7.24568 76.8157 7.65614 77.0182 8.10981C77.4269 9.00275 76.6313 9.3124 75.8898 9.39521C74.2949 9.57524 72.7036 9.78047 71.1086 9.82008C70.1322 9.84888 69.7958 10.1765 69.7452 11.1271C69.568 14.4684 69.6258 14.5584 72.9459 14.454C73.8103 14.4252 74.6855 14.2164 75.5137 14.3496C76.0815 14.4396 77.0219 15.0337 76.9965 15.3145C76.9278 15.9302 76.4215 16.9204 75.9658 16.9996C73.6078 17.392 71.2135 17.6621 68.8266 17.7269C67.3039 17.7629 66.7759 16.4775 66.7217 15.1561C66.6457 13.2334 66.7 11.3071 66.7 9.3772C66.7832 9.37 66.87 9.37001 66.9531 9.3628C66.7832 7.09806 66.5806 4.84051 66.4974 2.57576C66.483 2.17609 66.8989 1.5424 67.275 1.38037C70.4251 0.0445682 73.7416 0.725073 76.9965 0.710671C77.2497 0.70347 77.662 1.24715 77.7126 1.5856C77.7596 1.91325 77.5137 2.48574 77.2389 2.60456Z" fill="white"/>
<path d="M61.2786 8.75429C60.8519 9.13235 60.4432 9.78765 59.9803 9.83805C58.02 10.0325 56.0417 10.1369 54.0779 10.0829C53.0327 10.0469 52.5698 10.2449 52.624 11.3395C52.6819 12.3512 52.7578 13.3954 52.5879 14.3784C52.4974 14.922 51.9983 15.7214 51.5499 15.8258C50.653 16.0346 50.02 15.3937 49.9983 14.436C49.9549 12.7797 49.9839 11.1235 49.9839 9.4672C49.9477 9.46 49.9224 9.46 49.8862 9.46C49.9911 7.12684 50.0562 4.77928 50.2298 2.44252C50.266 2.04285 50.7651 1.38755 51.1014 1.34435C53.7886 1.0383 56.5011 0.800665 59.2099 0.689048C59.6294 0.667444 60.0815 1.43076 60.5228 1.83402C60.1068 2.11486 59.7235 2.57574 59.2786 2.64415C57.4884 2.91779 55.6837 3.16983 53.879 3.23104C52.4468 3.28145 52.5517 4.14558 52.6168 5.06732C52.6783 5.98186 52.1973 7.16285 53.9369 7.19165C56.0164 7.23486 58.0924 7.44369 60.1502 7.71013C60.5625 7.77134 60.8989 8.39063 61.2786 8.75429Z" fill="white"/>
<path d="M46.002 8.21781C45.3438 8.54546 44.7036 9.08555 44.0165 9.16836C42.4215 9.36279 40.8013 9.38439 39.1883 9.406C38.2118 9.4204 37.8465 9.80566 37.9044 10.767C37.9803 12.1028 38.0165 13.4422 37.9658 14.778C37.9297 15.6638 37.6693 16.5027 36.4975 16.5099C35.4234 16.5171 35.3329 15.7466 35.2895 14.9725C35.1847 13.1542 35.1015 11.3395 34.9677 8.71829C35.0653 7.17365 35.2498 4.84049 35.3329 2.50733C35.3691 1.6396 35.6006 1.25074 36.5337 1.25074C39.087 1.25074 41.6512 1.11032 44.1973 1.19313C44.606 1.20753 44.9894 2.06087 45.3836 2.52894C44.8989 2.80978 44.4215 3.30306 43.9224 3.33186C42.2082 3.42908 40.483 3.41467 38.7615 3.34626C37.4848 3.29586 37.3438 4.03037 37.427 4.98812C37.5102 5.93146 37.1195 7.16285 38.8085 7.12685C40.5843 7.09084 42.3673 7.06564 44.1286 7.21686C44.7796 7.27447 45.3763 7.86856 46.002 8.21781Z" fill="white"/>
<path d="M26.4939 2.24086C24.7796 1.00947 22.7941 0.883454 20.823 1.63237C16.1829 3.38584 14.6603 9.97125 18.0997 14.2379C19.5246 16.0058 21.4631 17.2984 23.644 16.9275C27.4053 16.2902 30.4252 14.1263 30.2769 8.82628C30.4903 5.98904 28.8049 3.89712 26.4939 2.24086ZM22.7688 13.759C20.8809 13.6618 18.9134 10.9902 19.0328 8.68585C19.1593 6.15466 20.7941 3.95473 22.5228 3.99073C24.9532 4.04834 27.5825 6.77036 27.4993 9.14673C27.4017 11.7895 25.2461 13.8923 22.7688 13.759Z" fill="white"/>
<path d="M12.9387 14.1371C12.6385 14.7528 12.4902 15.5629 12.0056 15.941C9.57158 17.8421 6.93143 17.428 4.4468 16.1102C-1.22409 13.0858 -1.10474 6.29151 4.62763 2.74136C6.08875 1.83402 7.5752 1.03469 9.43053 1.25433C10.5336 1.38035 11.6222 1.51357 11.5788 2.84938C11.5354 4.10597 10.3347 3.79272 9.49925 4.06636C7.91878 4.58484 6.21534 5.09252 4.95675 6.09347C3.56796 7.19885 3.14481 9.02073 3.82112 10.7814C4.47935 12.5061 5.94047 13.417 7.71624 13.7807C8.23703 13.8851 8.79038 13.8419 9.41606 13.8779C9.96941 13.8167 10.6168 13.6618 11.2425 13.7086C11.8175 13.7375 12.3708 13.9823 12.9387 14.1371Z" fill="white"/>
</svg>
