<svg width="1338" height="181" viewBox="0 0 1338 181" fill="none" xmlns="http://www.w3.org/2000/svg">
<path d="M0.516651 0.306002C1.84217 0.267337 2.89809 0.205472 3.95402 0.205472C28.0156 0.166807 52.0771 0.128142 76.1387 0.112676C88.9446 0.104942 101.75 0.151341 114.556 0.17454C127.722 0.197739 140.887 0.228672 154.052 0.244138C165.42 0.259604 176.788 0.251871 188.134 0.244138C202.512 0.244138 216.913 0.220939 231.292 0.236405C243.986 0.251871 256.657 0.313735 269.35 0.329201C295.344 0.360134 321.338 0.3756 347.331 0.391066C360.137 0.398799 372.965 0.3756 385.771 0.383333C398.937 0.391066 412.102 0.421998 425.29 0.445198C437.848 0.468397 450.43 0.499329 462.988 0.514795C476.176 0.522528 489.342 0.507062 502.529 0.507062C515.111 0.507062 527.669 0.499329 540.251 0.514795C553.551 0.530261 566.828 0.57666 580.128 0.599859C592.575 0.623058 605.021 0.65399 617.468 0.661723C631.127 0.669456 644.787 0.661723 658.446 0.661723C670.533 0.661723 682.62 0.65399 694.707 0.661723C708.12 0.669456 721.532 0.700389 734.945 0.723588C747.751 0.746787 760.556 0.777719 773.362 0.785453C786.528 0.793186 799.715 0.785453 812.881 0.785453C824.361 0.785453 835.842 0.785453 847.344 0.793186C861.611 0.808652 875.877 0.824118 890.12 0.847317C903.061 0.870516 915.979 0.916915 928.92 0.932381C942.108 0.947847 955.273 0.932381 968.461 0.932381C980.076 0.932381 991.669 0.924648 1003.28 0.932381C1017.42 0.947847 1031.57 0.971046 1045.7 0.994245C1057.9 1.01744 1070.1 1.05611 1082.3 1.06384C1095.85 1.07158 1109.37 1.05611 1122.92 1.05611C1135.5 1.05611 1148.06 1.04838 1160.64 1.05611C1174.05 1.07158 1187.46 1.09478 1200.88 1.12571C1213.44 1.14891 1225.99 1.20304 1238.57 1.20304C1264.57 1.21077 1290.56 1.18757 1316.56 1.19531C1322.71 1.19531 1328.87 1.27264 1335.02 1.3345C1337.65 1.3577 1337.7 1.4737 1337.67 2.51766C1337.61 5.1469 1337.72 7.77615 1337.67 10.4054C1337.63 13.2744 1337.54 16.1356 1337.34 19.0046C1337.29 19.5381 1336.8 20.1491 1336.01 20.5744C1334.17 21.5487 1332.64 22.5695 1332.17 23.7759C1331.81 24.6806 1330.24 25.1987 1328.71 25.7091C1323.81 27.3485 1320.02 29.305 1317.9 31.6945C1316.8 32.9396 1315.79 34.2542 1315.57 35.5611C1314.8 39.9844 1314.4 44.4232 1313.88 48.8619C1313.48 52.1949 1313.1 55.5356 1312.71 58.8685C1312.49 60.825 1312.31 62.7737 1312.18 64.7302C1312 67.4522 1312 70.1743 1311.77 72.8886C1311.5 76.0128 1312.8 79.0673 1314.02 82.1296C1315.5 85.8028 1317.12 89.4683 1318.29 93.1647C1318.85 94.9588 1318.67 96.7915 1318.58 98.601C1318.44 101.107 1315.57 102.529 1309.39 103.032C1304.2 103.45 1299.03 103.341 1294.38 102.158C1291.69 101.478 1289.98 100.534 1290.05 99.2042C1290.16 96.7683 1290 94.3324 1290.45 91.9119C1291.28 87.535 1292.61 83.1658 1293.53 78.7889C1294.07 76.1287 1294.38 73.4531 1294.49 70.7775C1294.7 66.2923 1294.94 61.7994 1294.67 57.3142C1294.49 54.221 1293.51 51.1277 1292.76 48.0422C1292.36 46.3796 1291.6 44.7325 1291.12 43.0699C1290.14 39.6132 1285.51 36.9298 1279.67 34.5016C1276.57 33.2179 1273.29 32.058 1268.88 31.4471C1261.29 30.3876 1253.94 30.5732 1247.43 32.3982C1238.06 35.0275 1230.15 38.2986 1225.3 42.4512C1221.5 45.6837 1218.56 49.0862 1215.61 52.4656C1211.19 57.5152 1207.41 62.65 1201.71 67.5141C1195.26 73.0201 1184.75 76.6546 1170.03 78.4796C1157.11 80.0803 1144.06 80.2891 1131.05 78.99C1115.39 77.4202 1102.38 74.1877 1094.36 68.4421C1088.59 64.3126 1083.26 60.0826 1077.63 55.9222C1074.5 53.61 1071.45 51.2669 1067.85 49.0707C1061.63 45.2661 1052.42 44.0133 1041.23 44.516C1030.51 44.9954 1022.78 47.1297 1017.46 50.7411C1015.46 52.1021 1013.53 53.4786 1011.73 54.886C1007.69 58.072 1005.49 61.4823 1003.8 64.9622C1002.52 67.5837 1001.13 70.2052 999.847 72.8267C999.173 74.1877 998.656 75.5565 998.049 76.9175C996.634 80.1113 995.196 83.3128 993.826 86.5065C992.635 89.2363 991.534 91.9661 990.366 94.6958C989.085 97.6653 987.692 100.619 986.546 103.597C984.143 109.822 980.773 116.016 981.357 122.365C981.649 125.605 982.39 128.845 983.154 132.07C984.817 139.006 986.726 145.935 988.321 152.872C988.771 154.813 988.816 156.792 988.434 158.733C987.894 161.494 984.502 163.195 977.874 163.938C972.662 164.525 967.562 164.038 962.844 163.041C961.766 162.816 960.98 162.298 960.351 161.85C955.408 158.378 954.397 154.643 955.61 150.753C956.531 147.814 957.52 144.883 958.284 141.945C959.272 138.194 960.373 134.444 960.845 130.678C961.182 128.064 960.845 125.419 960.238 122.813C959.474 119.434 957.542 116.132 954.891 112.892C951.229 108.407 946.062 104.215 939.771 100.24C937.098 98.5469 934.155 96.9075 931.167 95.2836C925.505 92.2135 917.799 90.4504 908.476 89.6075C896.007 88.4862 884.144 86.7849 874.282 83.4056C866.104 80.5985 860.644 77.0876 858.083 72.9505C855.208 68.3415 851.456 63.895 845.592 59.7346C839.369 55.3191 830.405 52.0093 818.767 50.0915C808.814 48.4444 798.839 49.0553 789.853 51.5067C786.887 52.3109 785.09 53.4631 783.899 54.8241C780.844 58.3272 776.193 61.521 770.779 64.5059C767.072 66.5475 761.5 67.692 755.322 68.2333C748.29 68.8519 741.19 68.8983 734.136 68.241C726.497 67.5296 720.723 65.7278 715.803 63.4078C711.22 61.2503 706.682 59.0773 701.986 56.9585C695.157 53.8884 686.462 52.3109 676.105 52.3573C667.366 52.4037 660.603 54.0663 655.818 56.8811C654.38 57.724 653.684 58.7912 652.987 59.7965C650.673 63.2068 648.539 66.6403 646.27 70.0583C642.99 75.0384 640.406 80.0958 636.16 84.9831C633.082 88.5094 631.599 92.1903 630.925 95.9254C630.004 100.921 628.633 105.909 627.667 110.904C627.128 113.619 626.926 116.341 626.724 119.055C626.342 123.873 625.758 128.698 625.848 133.516C625.96 138.48 626.791 143.437 627.286 148.394C627.578 151.209 627.757 154.024 628.094 156.839C628.386 159.267 629.218 161.695 629.083 164.116C628.971 165.894 627.959 167.696 626.814 169.436C625.96 170.751 622.972 171.462 619.782 171.64C615.76 171.872 611.649 171.996 607.65 171.331C604.437 170.797 602.325 169.939 601.09 168.655C599.697 167.193 599.405 165.67 599.405 164.139C599.427 161.556 599.629 158.981 599.764 156.398C600.079 150.722 600.393 145.038 600.708 139.362C600.887 136.021 601.112 132.681 601.292 129.34C601.494 125.473 601.741 121.607 601.831 117.74C601.943 113.874 602.011 110 601.876 106.125C601.696 101.099 599.944 96.1342 597.315 91.216C593.878 84.7743 587.834 78.7193 580.353 72.8654C576.691 69.9964 574.512 66.9187 572.647 63.8022C571.367 61.6679 570.468 59.4949 569.12 57.3606C566.446 53.1229 559.931 50.1611 549.439 48.7073C540.565 47.4777 531.601 47.7097 522.794 48.8387C513.965 49.9678 506.012 51.7232 499.249 54.2906C491.386 57.2678 487.746 60.8869 487.589 65.1787C487.432 69.6175 486.848 74.0486 486.466 78.4873C485.994 83.8309 485.567 89.1744 485.073 94.518C484.713 98.3768 484.219 102.243 483.837 106.102C483.455 110.015 483.163 113.928 482.736 117.841C482.354 121.367 482.085 124.901 481.231 128.42C480.849 129.959 479.456 131.49 477.996 132.944C476.603 134.343 473.48 135.163 469.975 135.673C464.089 136.539 458.136 136.539 452.249 135.658C448.498 135.093 445.824 134.034 443.982 132.603C441.488 130.662 440.05 128.59 439.331 126.456C438.41 123.71 437.826 120.95 437.107 118.197C436.074 114.353 435.04 110.51 434.007 106.667C432.838 102.297 431.895 97.9205 430.39 93.5746C428.929 89.3059 424.324 85.5554 416.865 82.3848C409.586 79.2916 400.914 76.9794 391.028 75.4482C381.885 74.0254 372.269 73.4531 362.563 74.1877C347.017 75.3632 335.851 78.7967 329.785 84.6893C326.19 88.1923 323.292 91.7805 321.36 95.4692C319.855 98.3613 318.619 101.292 317.765 104.231C316.754 107.641 316.238 111.074 315.631 114.5C315.339 116.163 315.294 117.833 315.227 119.504C315.137 122.465 315.182 125.427 315.114 128.389C315.024 132.163 315.609 135.921 316.642 139.679C317.72 143.615 318.641 147.567 319.428 151.518C320.147 155.114 318.664 157.334 308.217 159.298C301.028 160.651 293.569 159.089 291.165 156.599C289.188 154.565 288.087 152.485 288.671 150.289C289.525 147.111 290.401 143.925 291.165 140.746C291.502 139.37 291.682 137.986 291.682 136.601C291.659 132.108 291.704 127.623 289.884 123.169C288.357 119.442 286.604 115.722 282.852 112.234C278.943 108.608 271.777 106.295 262.565 104.919C253.421 103.558 243.918 103.164 234.392 103.751C218.711 104.726 206.624 107.935 198.716 113.456C191.167 118.746 186.067 124.383 183.551 130.368C182.315 133.338 181.596 136.331 181.664 139.354C181.709 140.971 181.282 142.587 180.945 144.203C180.428 146.546 180.405 148.866 181.394 151.201C182.427 153.645 183.034 156.127 184.112 158.571C185.303 161.247 186.786 163.907 188.179 166.567C188.83 167.827 189.841 169.073 190.133 170.348C190.965 174.053 186.247 176.821 180.024 179.319C178.631 179.876 177.148 180.084 175.216 180.108C172.52 180.146 170.43 179.93 168.588 179.025C165.802 177.656 162.432 176.473 160.478 174.834C159.287 173.836 158.928 172.831 159.377 171.764C161.736 166.057 162.882 160.303 163.915 154.534C164.993 148.464 164.994 142.409 164.589 136.346C164.275 131.575 162.679 126.842 160.186 122.148C157.894 117.833 155.153 113.58 150.053 109.644C145.785 106.334 141.246 103.071 136.461 99.8693C128.912 94.8196 120.959 89.8549 114.444 84.5733C108.985 80.1422 104.446 75.5874 101.818 70.7465C100.582 68.4885 98.2906 66.3851 94.4039 64.6065C91.3485 63.2145 87.4169 62.3716 83.0134 61.9772C76.3634 61.3818 68.253 62.9825 65.0178 65.4416C62.2544 67.545 60.6144 69.8031 60.7267 72.1772C60.9739 76.5695 61.4681 80.9542 61.9174 85.3466C62.4566 90.7829 63.2205 96.2193 63.5126 101.656C63.6024 103.156 62.6364 104.687 61.7152 106.156C60.5919 107.966 57.4466 109.219 53.3577 110.1C49.8979 110.842 46.3482 110.819 42.9333 110.139C36.6876 108.886 32.8009 106.906 32.2617 104.092C31.5203 100.14 31.0261 96.1883 30.4644 92.2367C29.9477 88.664 29.4534 85.0914 29.0041 81.5187C28.8019 79.9411 28.757 78.3636 28.5997 76.7938C28.2852 73.2134 27.9931 69.633 27.6112 66.0603C27.2517 62.6268 26.8249 59.1933 26.3306 55.7676C25.9037 52.7671 25.5443 49.759 24.7579 46.774C23.5223 42.0027 19.5008 37.5871 13.0979 33.5041C11.5701 32.5374 10.2671 31.5167 8.94157 30.4959C7.54865 29.4133 5.9086 28.3848 3.25756 27.7584C1.03338 27.2325 0.58405 26.5443 0.58405 25.6163C0.628983 19.9789 0.561584 14.3415 0.516651 8.69638C0.381852 6.37646 0.33692 4.07974 0.314453 1.78302C0.314453 1.31903 0.426785 0.862783 0.516651 0.306002ZM156.052 44.4232C153.76 44.4232 151.446 44.3458 149.177 44.4464C147.29 44.5314 145.403 44.7866 143.605 45.0418C135.45 46.2018 129.564 48.2201 128.306 51.7928C127.385 54.3602 127.699 56.9353 129.07 59.4794C129.452 60.1754 129.901 60.8714 130.283 61.5596C131.608 63.8796 132.889 66.215 134.282 68.5271C135.562 70.6537 136.821 72.7881 138.416 74.876C140.101 77.0567 141.898 79.2452 144.145 81.3408C148.458 85.3311 155.176 88.7336 162.163 92.0279C163.668 92.7394 165.712 93.3116 167.734 93.8143C170.925 94.6108 174.587 94.9201 178.204 95.3222C184.068 95.9718 192.852 94.3711 195.054 92.0511C196.199 90.8525 197.233 89.6307 198.042 88.3934C199.3 86.4601 200.311 84.4959 201.434 82.5472C202.917 79.9489 204.445 77.3506 205.882 74.7445C206.085 74.3811 206.085 73.9867 205.972 73.6155C204.782 70.066 203.479 66.5243 202.333 62.9748C201.479 60.361 199.884 57.84 197.48 55.3809C191.122 48.9083 171.082 43.936 156.052 44.4232ZM917.53 76.6391C920.855 76.8479 923.932 76.2679 926.449 75.3322C928.448 74.5899 930.201 73.7006 931.571 72.7649C933.705 71.3033 934.357 69.6407 934.874 67.9781C935.413 66.2768 936.019 64.5833 936.693 62.8897C937.48 60.9101 938.446 58.9459 939.142 56.9662C939.367 56.3244 939.052 55.6361 938.85 54.9788C938.513 53.8884 938.086 52.8058 937.659 51.7232C936.469 48.7073 935.638 45.6682 933.189 42.7606C932.312 41.7321 931.391 40.6726 929.953 39.7601C924.921 36.5509 916.945 35.1357 907.959 34.664C898.905 34.1846 890.233 34.9115 882.033 36.5741C873.428 38.3218 869.159 41.8944 870.687 45.2274C870.934 45.7842 871.496 46.3255 871.765 46.89C873.698 50.772 876.236 54.5767 879.651 58.3118C885.29 64.475 894.412 69.7567 905.42 74.5667C908.476 75.9045 912.317 76.7861 917.53 76.6391ZM254.814 60.2141C254.5 58.8917 254.387 57.5539 253.803 56.247C252.972 54.3602 250.321 52.9373 245.85 52.0789C241.671 51.2824 237.313 51.1664 232.82 51.5376C226.372 52.0634 220.957 53.2543 217.992 55.6516C216.487 56.8657 215.723 58.2422 214.936 59.58C213.925 61.289 213.162 63.0212 212.465 64.7611C211.971 66.0294 211.252 67.3362 211.566 68.5813C212.532 72.3705 213.903 76.1442 215.184 79.9179C215.633 81.2403 216.374 82.5395 216.891 83.8541C217.857 86.3441 221.631 87.9681 227.158 89.0043C229.54 89.4528 231.966 89.3832 234.437 88.8651C237.066 88.3161 238.818 87.4577 240.009 86.4911C242.031 84.8284 243.649 83.0885 245.311 81.3563C248.501 78.0543 250.546 74.6285 252.208 71.1718C254.006 67.5605 254.657 63.9028 254.814 60.2141ZM971.179 65.4803C971.045 65.4803 970.932 65.4803 970.797 65.4803C970.797 62.8588 970.82 60.2296 970.797 57.608C970.775 54.9324 970.483 52.2568 970.685 49.5889C970.842 47.6788 968.843 46.3023 965.226 45.1733C960.373 43.6576 954.801 43.9205 951.566 46.0084C950.173 46.9132 949.23 48.019 948.938 49.0707C948.264 51.5763 948.039 54.105 947.724 56.6259C947.23 60.6703 946.624 64.7147 946.421 68.7591C946.219 72.9505 946.197 77.134 949.252 81.2326C950.42 82.8024 952.42 84.0087 955.565 84.929C961.092 86.5375 968.618 86.058 970.753 83.22C971.112 82.7251 971.157 82.1837 971.157 81.6656C971.179 76.2679 971.179 70.878 971.179 65.4803Z" fill="#BCA58D"/>
</svg>
