<svg width="43" height="32" viewBox="0 0 43 32" fill="none" xmlns="http://www.w3.org/2000/svg">
<path d="M21.2609 0.361058C25.2465 0.420859 29.232 0.480655 33.2176 0.530489C35.1596 0.56039 37.1015 0.580325 39.0434 0.600259C40.5138 0.620193 41.7066 1.66671 42.0303 3.19165C42.0765 3.42088 42.0396 3.55045 41.8546 3.68999C36.6391 7.5372 31.4329 11.4043 26.2174 15.2516C25.6256 15.6901 25.0153 16.0888 24.4234 16.5174C23.0918 17.5041 21.6215 17.6735 20.068 17.3645C19.2542 17.2051 18.5144 16.8662 17.8394 16.3579C15.2224 14.3645 12.5961 12.3911 9.99765 10.3778C6.89981 7.97575 3.82045 5.5239 0.731849 3.10195C0.565397 2.97238 0.528413 2.85277 0.574649 2.64347C0.898305 1.16837 2.1282 0.101919 3.53379 0.111886C7.61185 0.16172 11.6807 0.231483 15.7587 0.281318C17.5989 0.301251 19.4299 0.281318 21.2701 0.281318C21.2609 0.321185 21.2609 0.341124 21.2609 0.361058Z" fill="#BCA58D"/>
<path d="M21.0119 31.3679C17.5997 31.318 14.1874 31.2782 10.7752 31.2283C8.24139 31.1884 5.71688 31.1486 3.18312 31.1187C1.74978 31.0988 0.538392 30.0124 0.251726 28.4974C0.214737 28.318 0.233229 28.1984 0.39968 28.0788C5.43021 24.3611 10.4515 20.6435 15.4728 16.9159C15.667 16.7764 15.7872 16.7863 15.9721 16.9159C16.7212 17.4342 17.4517 18.0322 18.2655 18.4109C20.1427 19.288 22.1031 19.3877 24.0173 18.5305C24.7941 18.1817 25.4876 17.6235 26.2182 17.1451C26.5511 16.9259 26.5511 16.9159 26.8562 17.1551C31.7758 20.9923 36.6953 24.8396 41.6149 28.6768C41.7351 28.7765 41.7629 28.8662 41.7351 29.0157C41.4577 30.5306 40.1816 31.637 38.7205 31.617C36.4919 31.5871 34.2541 31.5572 32.0255 31.5273C28.3543 31.4775 24.6831 31.4277 21.0119 31.3679C21.0119 31.3778 21.0119 31.3778 21.0119 31.3679Z" fill="#BCA58D"/>
<path d="M42.068 5.47412C41.9848 12.6104 41.9015 19.7068 41.8091 26.8531C37.1577 23.2152 32.5248 19.5972 27.9011 15.9792C32.608 12.4908 37.3241 8.99243 42.068 5.47412Z" fill="#BCA58D"/>
<path d="M0.223755 26.2749C0.306981 19.1387 0.390213 12.0323 0.473439 4.896C5.12483 8.5339 9.75772 12.1519 14.3814 15.7699C9.68375 19.2583 4.97687 22.7467 0.223755 26.2749Z" fill="#BCA58D"/>
</svg>
