<svg width="251" height="69" viewBox="0 0 251 69" fill="none" xmlns="http://www.w3.org/2000/svg">
<path d="M249.797 58.8778C249.91 59.3531 249.678 59.9976 249.403 60.4513C249.215 60.7573 248.723 60.9842 248.329 61.067C246.398 61.4846 244.467 61.9527 242.517 62.2048C240.882 62.4208 239.877 61.4414 239.87 59.7996C239.855 55.857 239.899 51.918 239.906 47.9754C239.906 46.8844 240.517 46.3767 241.519 46.4379C244.13 46.6071 246.741 46.816 249.345 47.1148C249.711 47.158 250.011 47.7917 250.351 48.1482C249.957 48.4542 249.58 48.9871 249.165 49.0231C247.725 49.1419 246.271 49.0807 244.821 49.1059C244.083 49.1203 243.345 49.1671 242.448 49.2103C242.517 50.3013 242.575 51.2375 242.644 52.1052C244.582 52.9657 246.835 52.2852 248.828 54.0747C247.902 54.4744 247.306 54.838 246.665 54.9676C246.054 55.1009 245.382 54.9316 244.741 55.0036C243.975 55.0793 242.839 54.6112 242.825 56.0298C242.803 57.5816 243.414 58.1829 244.882 58.1757C246.112 58.1685 247.353 58.1073 248.582 58.1973C249.027 58.2297 249.722 58.5646 249.797 58.8778Z" fill="white"/>
<path d="M237.002 57.9777C236.741 59.814 235.852 60.7177 233.758 61.2074C231.96 61.625 230.242 61.3478 228.698 60.354C228.354 60.1308 228.058 59.4251 228.159 59.0542C228.257 58.705 228.89 58.2837 229.302 58.2729C230.362 58.2369 231.436 58.5178 232.495 58.4602C233.114 58.4313 233.711 57.9921 234.315 57.7328C233.899 57.2576 233.57 56.5375 233.06 56.3718C231.552 55.8678 229.888 55.7777 228.456 55.1548C227.494 54.7372 226.47 53.8118 226.098 52.8685C225.562 51.5327 226.231 50.0817 227.537 49.466C229.186 48.6918 230.984 48.1302 232.781 47.8097C233.349 47.7053 234.535 48.5586 234.691 49.1599C234.98 50.2977 233.906 50.3193 232.998 50.4309C231.447 50.6181 229.917 50.9746 228.702 52.5264C230.919 53.1709 232.803 53.5598 234.557 54.2655C236.42 55.0144 237.219 56.4474 237.002 57.9777Z" fill="white"/>
<path d="M220.224 60.8437C217.642 62.7448 213.288 61.2578 212.206 57.9849C211.7 56.4403 211.552 54.7768 211.244 53.171C211.335 53.1494 211.425 53.135 211.519 53.1205C211.519 52.3248 211.363 51.4787 211.57 50.7298C211.718 50.1501 212.3 49.682 212.694 49.1635C213.179 49.646 213.957 50.0637 214.105 50.6398C214.477 52.1268 214.575 53.6786 214.792 55.2089C214.85 55.6265 214.835 56.1018 215.038 56.4475C215.642 57.452 216.336 58.8094 217.656 58.3702C218.604 58.0569 219.537 56.9875 219.96 56.0298C220.459 54.8992 220.401 53.5274 220.571 52.2636C220.669 51.5219 220.629 50.7406 220.872 50.0565C221.02 49.6496 221.573 49.286 222.022 49.1491C222.217 49.0879 222.723 49.5488 222.893 49.8765C224.148 52.3032 222.434 59.2199 220.224 60.8437Z" fill="white"/>
<path d="M209.226 55.1549C208.98 51.3743 206.651 48.0186 202.846 48.1518C199.259 48.2778 195.678 52.17 195.797 55.8246C195.902 59.0399 198.304 61.9239 202.481 61.6935C205.797 62.0175 209.472 58.885 209.226 55.1549ZM202.929 59.1443C200.72 59.2559 198.951 57.7941 198.85 55.7706C198.752 53.7002 200.821 51.1006 202.611 51.061C204.886 51.0034 206.275 53.2502 206.709 55.6445C206.752 57.2504 204.81 59.0543 202.929 59.1443Z" fill="white"/>
<path d="M193.674 60.4873C193.617 61.0598 192.915 61.571 192.503 62.1075C192.033 61.5962 191.266 61.1426 191.161 60.5629C190.929 59.3207 191.132 57.9993 190.966 56.7319C190.908 56.3142 190.293 55.6841 189.877 55.6409C188.6 55.5077 187.302 55.6409 186.011 55.6121C184.951 55.5905 184.622 56.0874 184.637 57.0919C184.658 58.2657 184.579 59.4467 184.412 60.6061C184.351 61.0526 183.971 61.7115 183.613 61.8087C183.255 61.9059 182.575 61.5206 182.329 61.157C182 60.6601 181.783 59.976 181.808 59.3819C181.942 56.2854 182.137 53.1961 182.412 50.1069C182.448 49.7072 183.023 49.3579 183.345 48.9871C183.711 49.3579 184.315 49.6856 184.391 50.1069C184.897 52.9369 184.861 52.9441 187.725 52.8469C188.21 52.8325 188.687 52.6993 189.165 52.6993C190.597 52.6921 191.237 52.044 191.024 50.5965C190.966 50.2329 190.919 49.8008 191.067 49.484C191.262 49.0663 191.602 48.483 191.957 48.4218C192.344 48.3534 193.081 48.7026 193.204 49.0375C193.519 49.862 193.653 50.7694 193.711 51.6587C193.787 52.9369 193.732 54.2223 193.732 55.5077C193.732 57.1748 193.837 58.8418 193.674 60.4873Z" fill="white"/>
<path d="M162.846 50.0025C162.199 53.4914 162.405 53.6931 165.816 53.2466C166.987 53.099 168.174 52.9585 169.345 53.0234C169.83 53.045 170.286 53.6174 170.756 53.9451C170.362 54.3016 170.011 54.8956 169.57 54.9713C167.779 55.2701 165.967 55.4753 164.159 55.587C163.034 55.6554 162.524 55.9866 162.915 57.1532C162.976 57.3548 162.991 57.5781 163.005 57.7905C163.23 61.2902 163.096 60.8798 166.72 60.6349C167.57 60.5737 168.441 60.2425 169.262 60.3541C169.83 60.4297 170.329 61.0382 170.857 61.409C170.438 61.9275 170.072 62.8205 169.58 62.8889C167.269 63.2309 164.926 63.4758 162.597 63.4902C161.277 63.4974 160.517 62.518 160.524 61.1066C160.532 58.0533 160.553 55.0001 160.51 51.9432C160.495 51.1115 160.322 50.2797 160.137 49.4624C159.92 48.4831 160.235 47.8278 161.233 47.7377C164.278 47.4641 167.327 47.2409 170.38 47.0536C171.201 47.0032 172.351 46.816 172.318 48.0546C172.304 48.4182 171.146 48.9547 170.459 49.0591C167.935 49.4588 165.389 49.7036 162.846 50.0025Z" fill="white"/>
<path d="M154.85 49.0375C154.134 49.358 153.342 49.5812 152.561 49.6748C151.606 49.7865 150.629 49.7361 149.66 49.7433C146.691 49.7649 146.34 50.2401 147.378 53.0918C147.49 53.405 148.152 53.6931 148.564 53.7003C150.065 53.7363 151.584 53.5598 153.078 53.6499C153.631 53.6787 154.427 54.0891 154.629 54.5428C155.038 55.4357 154.242 55.7454 153.501 55.8282C151.906 56.0082 150.315 56.2135 148.72 56.2531C147.743 56.2819 147.407 56.6095 147.356 57.5601C147.179 60.9014 147.237 60.9914 150.557 60.887C151.421 60.8582 152.297 60.6493 153.125 60.7826C153.693 60.8726 154.633 61.4667 154.608 61.7475C154.539 62.3632 154.033 63.3534 153.577 63.4326C151.219 63.825 148.825 64.0951 146.438 64.1599C144.915 64.1959 144.387 62.9105 144.333 61.5891C144.257 59.6664 144.311 57.7401 144.311 55.8102C144.394 55.803 144.481 55.803 144.564 55.7958C144.394 53.531 144.192 51.2735 144.108 49.0087C144.094 48.6091 144.51 47.9754 144.886 47.8134C148.036 46.4776 151.353 47.1581 154.608 47.1437C154.861 47.1365 155.273 47.6801 155.324 48.0186C155.371 48.3462 155.125 48.9187 154.85 49.0375Z" fill="white"/>
<path d="M138.89 55.1873C138.463 55.5653 138.054 56.2206 137.591 56.271C135.631 56.4655 133.653 56.5699 131.689 56.5159C130.644 56.4799 130.181 56.6779 130.235 57.7725C130.293 58.7842 130.369 59.8284 130.199 60.8113C130.108 61.355 129.609 62.1543 129.161 62.2588C128.264 62.4676 127.631 61.8267 127.609 60.8689C127.566 59.2127 127.595 57.5564 127.595 55.9002C127.559 55.893 127.533 55.893 127.497 55.893C127.602 53.5598 127.667 51.2123 127.841 48.8755C127.877 48.4758 128.376 47.8205 128.712 47.7773C131.4 47.4713 134.112 47.2336 136.821 47.122C137.241 47.1004 137.693 47.8637 138.134 48.267C137.718 48.5478 137.335 49.0087 136.89 49.0771C135.099 49.3508 133.295 49.6028 131.49 49.664C130.058 49.7144 130.163 50.5786 130.228 51.5003C130.289 52.4148 129.808 53.5958 131.548 53.6246C133.627 53.6678 135.703 53.8767 137.761 54.1431C138.174 54.2043 138.51 54.8236 138.89 55.1873Z" fill="white"/>
<path d="M123.613 54.6508C122.955 54.9784 122.315 55.5185 121.627 55.6013C120.033 55.7958 118.412 55.8174 116.799 55.839C115.823 55.8534 115.457 56.2386 115.515 57.2C115.591 58.5358 115.627 59.8752 115.577 61.211C115.541 62.0967 115.28 62.9357 114.108 62.9429C113.034 62.9501 112.944 62.1796 112.901 61.4054C112.796 59.5872 112.712 57.7725 112.579 55.1513C112.676 53.6066 112.861 51.2735 112.944 48.9403C112.98 48.0726 113.212 47.6837 114.145 47.6837C116.698 47.6837 119.262 47.5433 121.808 47.6261C122.217 47.6405 122.6 48.4939 122.995 48.9619C122.51 49.2428 122.033 49.736 121.533 49.7648C119.819 49.8621 118.094 49.8477 116.373 49.7792C115.096 49.7288 114.955 50.4634 115.038 51.4211C115.121 52.3644 114.731 53.5958 116.42 53.5598C118.195 53.5238 119.978 53.4986 121.74 53.6498C122.391 53.7075 122.987 54.3015 123.613 54.6508Z" fill="white"/>
<path d="M104.105 48.6738C102.391 47.4425 100.405 47.3164 98.434 48.0654C93.7938 49.8188 92.2712 56.4042 95.7107 60.6709C97.1356 62.4388 99.0741 63.7314 101.255 63.3605C105.016 62.7232 108.036 60.5593 107.888 55.2593C108.101 52.422 106.416 50.3301 104.105 48.6738ZM100.38 60.192C98.4919 60.0948 96.5244 57.4232 96.6438 55.1188C96.7703 52.5876 98.4051 50.3877 100.134 50.4237C102.564 50.4813 105.193 53.2033 105.11 55.5797C105.013 58.2225 102.857 60.3252 100.38 60.192Z" fill="white"/>
<path d="M90.5497 60.5701C90.2495 61.1858 90.1013 61.9959 89.6166 62.374C87.1826 64.2751 84.5425 63.861 82.0579 62.5432C76.387 59.5187 76.5063 52.7245 82.2387 49.1743C83.6998 48.267 85.1862 47.4677 87.0416 47.6873C88.1447 47.8133 89.2333 47.9466 89.1899 49.2824C89.1465 50.539 87.9457 50.2257 87.1103 50.4993C85.5298 51.0178 83.8264 51.5255 82.5678 52.5265C81.179 53.6318 80.7559 55.4537 81.4322 57.2144C82.0904 58.939 83.5515 59.85 85.3273 60.2136C85.8481 60.3181 86.4014 60.2749 87.0271 60.3109C87.5805 60.2496 88.2278 60.0948 88.8535 60.1416C89.4286 60.1704 89.9819 60.4153 90.5497 60.5701Z" fill="white"/>
<path d="M248.477 39.1865C248.127 39.7446 246.98 39.8886 246.163 40.047C245.761 40.1298 245.259 39.8742 244.843 39.6762C240.25 37.4762 235.671 35.2547 231.067 33.0691C230.156 32.6299 229.183 32.3202 227.794 31.7837C227.946 33.3788 228.145 34.3977 228.145 35.4275C228.116 36.6661 228.174 38.0199 227.718 39.1325C226.911 41.0984 224.134 41.2028 223.092 39.3449C222.615 38.4844 222.423 37.3718 222.409 36.3672C222.318 31.4597 222.304 26.5557 222.318 21.6482C222.318 19.8731 222.394 18.0728 222.644 16.3121C222.727 15.7289 223.458 15.2464 223.888 14.7171C224.51 15.3076 225.53 15.7973 225.689 16.4922C226.145 18.4941 226.257 20.5824 226.503 22.6383C226.633 23.7725 226.767 24.9067 226.937 26.3649C227.689 25.9724 228.188 25.76 228.644 25.4648C233.118 22.5843 237.566 19.6679 242.076 16.8306C242.524 16.557 243.291 16.7946 243.906 16.7946C243.844 17.4463 244.036 18.3897 243.678 18.6849C240.929 20.9893 238.09 23.182 235.255 25.3819C234.123 26.2605 232.922 27.0526 231.533 28.0428C232.08 28.4352 232.398 28.7305 232.77 28.9285C237.667 31.5425 242.575 34.1385 247.472 36.7525C248.485 37.289 249.038 38.2791 248.477 39.1865Z" fill="white"/>
<path d="M209.414 25.0579C209.595 30.2751 205.725 35.9531 200.499 38.3115C196.3 40.2018 192.669 38.7436 189.208 36.4968C184.864 33.6776 182.145 29.717 182.184 24.4674C182.199 22.5231 183.11 20.4528 184.076 18.6921C186.264 14.6775 190.083 12.6144 194.427 12.2975C196.752 12.1247 199.295 13.2408 201.559 14.2022C206.293 16.2113 209.233 19.6894 209.414 25.0579Z" fill="white"/>
<path d="M170.033 36.3456C169.964 37.1846 168.901 38.0559 168.087 38.6752C167.602 39.0533 166.767 39.0533 166.083 39.0677C164.163 39.1145 162.25 39.0821 160.325 39.0821C160.325 39.1037 160.318 39.1361 160.318 39.1577C157.599 39.0136 154.857 39.0208 152.177 38.6824C150.134 38.4196 149.248 37.199 149.208 35.2115C149.103 29.4902 149.034 23.7581 148.973 18.0368C148.966 17.3491 148.89 16.5714 149.172 15.9881C149.504 15.3076 150.174 14.3642 150.745 14.3318C151.382 14.303 152.409 15.0123 152.665 15.646C153.183 16.9026 153.472 18.3213 153.515 19.6823C153.638 23.146 153.537 26.6241 153.599 30.0915C153.635 32.4138 153.855 32.4354 156.119 32.5038C159.703 32.6083 163.288 32.8963 166.872 33.1699C167.425 33.206 168.123 33.404 168.459 33.782C169.136 34.5454 170.101 35.5283 170.033 36.3456Z" fill="white"/>
<path d="M131.949 18.1556C131.826 23.0704 131.599 27.9851 129.891 32.6622C127.917 38.0595 123.103 40.2738 117.703 38.0919C113.103 36.2304 110.521 32.8243 110.579 27.6575C110.615 24.5574 110.391 21.4501 110.373 18.3428C110.365 15.6136 111.146 14.9043 113.964 14.8791C116.409 14.8575 118.846 14.8719 121.291 14.8719C121.291 14.9007 121.298 14.9331 121.298 14.9619C123.555 14.8179 125.816 14.6811 128.072 14.5622C130.817 14.3966 132.018 15.448 131.949 18.1556Z" fill="white"/>
<path d="M95.7649 35.8919C90.9873 38.6211 85.9168 39.6329 80.6763 37.1017C79.9566 36.7524 79.1645 36.0215 78.9512 35.3014C78.6944 34.4157 78.7378 33.2131 79.1718 32.4282C79.4286 31.9601 80.6691 31.8989 81.472 31.8917C81.9964 31.8845 82.5425 32.277 83.0597 32.5182C85.7179 33.7748 88.4593 33.8504 91.179 32.9035C93.0778 32.2446 93.9964 30.7323 93.5696 29.2201C93.085 27.4882 91.5805 27.1318 90.0217 26.9661C87.8951 26.7393 85.7685 26.5341 83.6419 26.2712C83.132 26.2028 82.6329 25.976 82.1627 25.7636C77.1501 23.5168 76.3761 19.2249 80.6293 15.7252C83.8951 13.0356 87.7975 12.0346 92.0651 13.23C93.5081 13.6369 94.6546 14.3714 94.2604 15.9952C93.8517 17.6803 92.3761 17.6587 90.9946 17.3491C88.2676 16.7298 85.9674 17.7415 83.8119 19.2105C82.6872 19.9739 82.7631 20.7372 84.0615 21.0936C85.2079 21.4105 86.4593 21.3817 87.6673 21.5005C87.689 21.3709 87.7034 21.2521 87.7287 21.1224C89.8264 21.4861 91.9891 21.6589 94.0181 22.2638C96.9475 23.1423 98.7269 25.3243 99.0163 28.3271C99.3128 31.3408 98.5823 34.2789 95.7649 35.8919Z" fill="white"/>
<path d="M62.0868 56.2675C61.8373 52.3393 61.736 48.3967 61.566 44.4577C61.6166 44.4541 61.6709 44.4541 61.7215 44.4505C61.7215 43.5107 61.7324 42.5746 61.7179 41.6348C61.6709 38.1855 61.7288 34.7326 61.5335 31.2904C61.3345 27.7763 60.9005 24.2729 60.5353 20.7696C60.4485 19.9271 59.7866 19.3546 58.9186 19.279C57.953 19.1962 56.9873 19.1097 56.0217 19.0953C53.3996 19.0629 50.774 19.0593 48.1519 19.0629C45.0741 19.0629 41.9964 19.0233 38.9222 19.1025C34.745 19.2106 30.575 19.441 26.3978 19.5706C22.7161 19.6822 19.0307 19.7182 15.3454 19.8083C14.8571 19.8191 14.3761 19.9811 13.8879 20.0495C13.4033 20.1179 13.3273 20.3879 13.2875 20.8488C13.1103 22.9011 12.8897 24.9499 12.6148 26.9914C12.5787 27.265 12.1989 27.5999 11.9023 27.7079C10.8499 28.1039 9.69982 28.2876 8.70162 28.7772C4.66546 30.7647 2.23508 34.1205 0.972873 38.3259C0.112113 41.1992 0.274861 44.0364 1.92043 46.672C3.97106 49.9557 6.81374 52.1628 10.6257 53.0522C11.8264 53.333 11.9711 53.3978 11.7649 54.5608C11.2839 57.2864 11.7179 59.9544 12.2821 62.59C12.6908 64.4983 13.6275 66.1942 15.5009 67.0583C16.4051 67.476 17.4467 67.6128 18.4376 67.8181C21.3635 68.4302 24.311 68.8982 27.3128 68.8694C29.9711 68.8442 32.6293 68.7398 35.2875 68.711C39.0814 68.6678 42.8788 68.7434 46.6691 68.6102C50.1194 68.4878 53.5696 68.2105 57.009 67.8901C58.9584 67.71 60.3436 66.403 61.6492 65.0816C61.859 64.8692 61.9349 64.4911 61.9928 64.1743C62.4521 61.5423 62.2604 58.9139 62.0868 56.2675ZM12.1881 34.4517C12.141 34.4445 12.0976 34.4445 12.0542 34.4445C11.9783 38.7688 11.8879 43.093 11.8336 47.4173C11.8228 48.1518 11.4358 48.2706 10.8716 48.1446C6.30379 47.1293 3.41049 42.7546 5.2188 37.9767C6.31826 35.0674 8.44123 33.3211 11.3599 32.4282C11.8915 32.2662 12.2278 32.3958 12.1917 33.0439C12.1664 33.512 12.1881 33.98 12.1881 34.4517ZM44.6401 60.9914C44.6401 62.122 44.6257 63.2526 44.6438 64.3795C44.6546 65.0024 44.2966 65.2041 43.7577 65.2293C43.0669 65.2581 42.3725 65.2797 41.6817 65.2869C38.4702 65.3229 35.2586 65.3625 32.047 65.3805C30.4702 65.3877 29.8083 64.7864 29.8626 63.2526C29.9494 60.7502 30.0289 58.237 30.3146 55.7526C30.7016 52.4005 34.4702 49.5812 37.8336 49.9557C38.4629 50.0241 39.1175 49.9989 39.7179 50.1681C41.9349 50.7874 43.009 52.6021 43.8806 54.478C44.3327 55.4501 44.481 56.5951 44.5967 57.6825C44.7125 58.7735 44.6221 59.886 44.6221 60.9878C44.6329 60.9914 44.6365 60.9914 44.6401 60.9914Z" fill="white"/>
<path d="M65.6492 17.4607C65.6383 17.6191 65.0705 17.8567 64.7559 17.8567C60.8752 17.8711 56.9946 17.8099 53.1176 17.8459C47.4141 17.8963 41.7107 18.0188 36.0036 18.0908C33.2875 18.1232 30.5714 18.0296 27.859 18.1268C24.0217 18.2672 20.1881 18.5372 16.3508 18.7425C15.4937 18.7893 14.6329 18.7749 13.7758 18.8073C11.1212 18.9081 8.46656 19.0305 5.81194 19.1061C5.47921 19.1169 5.14287 18.9081 4.80652 18.8001C5.0199 18.4832 5.16095 18.0404 5.45751 17.8783C7.25498 16.8882 9.07053 15.9232 10.915 15.0195C15.4069 12.8196 19.9132 10.6448 24.4232 8.48089C27.2658 7.11628 30.1302 5.79488 32.9874 4.45547C32.991 4.34025 32.9946 4.22503 32.9982 4.10982C32.264 3.77856 31.5298 3.44731 30.7993 3.10886C30.0904 2.78841 29.5298 2.41755 29.5588 1.47421C29.5986 0.260822 30.264 -0.311666 31.3888 0.170808C32.9295 0.82971 34.4159 1.61103 35.953 2.28433C36.3219 2.44636 36.8499 2.53997 37.2007 2.39955C38.8861 1.72625 40.5353 0.95573 42.2062 0.250021C42.4955 0.127602 42.8535 0.0519902 43.1573 0.102398C43.9819 0.24282 44.3291 0.908922 43.7758 1.49941C43.1646 2.15471 42.3291 2.61919 41.5624 3.11966C41.0633 3.44371 40.51 3.68495 39.7541 4.08101C40.4846 4.49147 41.0344 4.88033 41.642 5.12517C47.0633 7.31071 52.3291 9.8203 57.5118 12.5171C59.2694 13.4317 61.1103 14.1878 62.8933 15.0591C63.7107 15.4588 64.5063 15.916 65.2405 16.4453C65.5045 16.6361 65.6709 17.1222 65.6492 17.4607Z" fill="white"/>
</svg>
