<?xml version="1.0" encoding="utf-8"?>
<!-- Generator: Adobe Illustrator 24.3.0, SVG Export Plug-In . SVG Version: 6.00 Build 0)  -->
<svg version="1.1" id="Layer_1" xmlns="http://www.w3.org/2000/svg" xmlns:xlink="http://www.w3.org/1999/xlink" x="0px" y="0px"
	 viewBox="0 0 50 50" style="enable-background:new 0 0 50 50;" xml:space="preserve">
<style type="text/css">
	.st0{fill:#FFFFFF;}
</style>
<path class="st0" d="M48.9,38.3L35.6,25l13.2-13.2c1.5-1.5,1.5-3.9,0-5.4l-5.2-5.2c-1.5-1.5-3.9-1.5-5.4,0L25,14.3L11.8,1.2
	c-1.5-1.5-3.9-1.5-5.4,0L1.2,6.4c-1.5,1.5-1.5,3.9,0,5.4L14.3,25L1.1,38.2c-1.5,1.5-1.5,3.9,0,5.4l5.2,5.2c1.5,1.5,3.9,1.5,5.4,0
	L25,35.6l13.3,13.3c1.5,1.5,3.9,1.5,5.4,0l5.2-5.2C50.4,42.2,50.4,39.8,48.9,38.3z"/>
</svg>
