<?xml version="1.0" encoding="utf-8"?>
<!-- Generator: Adobe Illustrator 24.3.0, SVG Export Plug-In . SVG Version: 6.00 Build 0)  -->
<svg version="1.1" id="Layer_1" xmlns="http://www.w3.org/2000/svg" xmlns:xlink="http://www.w3.org/1999/xlink" x="0px" y="0px"
	 viewBox="0 0 50 50" style="enable-background:new 0 0 50 50;" xml:space="preserve">
<style type="text/css">
	.st0{fill:#FFFFFF;}
</style>
<path class="st0" d="M45.1,29.7H4.9c-2.7,0-4.9-2.2-4.9-4.9l0,0c0-2.7,2.2-4.9,4.9-4.9h40.3c2.7,0,4.9,2.2,4.9,4.9l0,0
	C50,27.5,47.8,29.7,45.1,29.7z"/>
<path class="st0" d="M45.1,43.6H4.9c-2.7,0-4.9-2.2-4.9-4.9l0,0c0-2.7,2.2-4.9,4.9-4.9h40.3c2.7,0,4.9,2.2,4.9,4.9l0,0
	C50,41.4,47.8,43.6,45.1,43.6z"/>
<path class="st0" d="M45.1,15.7H4.9c-2.7,0-4.9-2.2-4.9-4.9l0,0C0,8.2,2.2,6,4.9,6h40.3c2.7,0,4.9,2.2,4.9,4.9l0,0
	C50,13.5,47.8,15.7,45.1,15.7z"/>
</svg>
