<svg width="28" height="35" viewBox="0 0 28 35" fill="none" xmlns="http://www.w3.org/2000/svg">
<path d="M5.54391 34.8826C5.18099 34.7976 4.80228 34.7381 4.44725 34.6275C2.15137 33.9302 0.699684 32.0169 0.597119 29.4233C0.486664 26.7362 0.762801 24.0916 1.70955 21.5746C2.32494 19.9504 3.20858 18.5473 4.69972 17.6885C5.61492 17.1612 6.60112 16.9061 7.63466 16.9316C7.95813 16.9401 8.30528 17.1187 8.59719 17.2888C9.07846 17.5694 9.52028 17.9181 9.98576 18.2242C12.684 20.0184 15.3823 20.0184 18.0805 18.2157C18.4513 17.9691 18.8379 17.7225 19.1851 17.4419C19.832 16.9231 20.5421 16.8551 21.3074 16.9742C23.3981 17.3058 24.8735 18.5388 25.8755 20.5116C26.767 22.2719 27.1694 24.1767 27.3429 26.1495C27.4376 27.1614 27.477 28.1818 27.4692 29.1937C27.4376 32.2295 25.5046 34.4829 22.7038 34.8146C22.6328 34.8231 22.5697 34.8571 22.4987 34.8826C16.8418 34.8826 11.1929 34.8826 5.54391 34.8826Z" fill="#BCA58D"/>
<path d="M13.8042 16.8638C9.48066 16.8383 6.01712 13.0797 6.04868 8.45379C6.08023 3.80235 9.55167 0.111816 13.8436 0.111816C18.0567 0.111816 21.6228 3.87888 21.5833 8.51331C21.5518 13.1733 18.0803 16.8893 13.8042 16.8638Z" fill="#BCA58D"/>
</svg>
